<?xml version="1.0" encoding="UTF-8" standalone="no"?>
<!-- Created with Inkscape (http://www.inkscape.org/) -->

<svg
   version="1.1"
   id="svg1"
   width="4981.3003"
   height="2406.9597"
   viewBox="0 0 4981.3003 2406.9595"
   sodipodi:docname="Global-Transport-United-Logo_TEXT-SIDE_WHITE-COLOR.svg"
   inkscape:version="1.3.2 (091e20e, 2023-11-25)"
   inkscape:export-filename="GTU_Text_Side_WhiteText.png"
   inkscape:export-xdpi="96"
   inkscape:export-ydpi="96"
   xmlns:inkscape="http://www.inkscape.org/namespaces/inkscape"
   xmlns:sodipodi="http://sodipodi.sourceforge.net/DTD/sodipodi-0.dtd"
   xmlns="http://www.w3.org/2000/svg"
   xmlns:svg="http://www.w3.org/2000/svg">
  <defs
     id="defs1">
    <inkscape:perspective
       sodipodi:type="inkscape:persp3d"
       inkscape:vp_x="0 : 1156.9595 : 1"
       inkscape:vp_y="0 : 999.99994 : 0"
       inkscape:vp_z="2500 : 1156.9595 : 1"
       inkscape:persp3d-origin="1250 : 740.29297 : 1"
       id="perspective38" />
  </defs>
  <sodipodi:namedview
     id="namedview1"
     pagecolor="#ffffff"
     bordercolor="#000000"
     borderopacity="0.25"
     inkscape:showpageshadow="2"
     inkscape:pageopacity="0.0"
     inkscape:pagecheckerboard="0"
     inkscape:deskcolor="#d1d1d1"
     showguides="false"
     inkscape:zoom="0.1767767"
     inkscape:cx="2783.1722"
     inkscape:cy="1784.7375"
     inkscape:window-width="1920"
     inkscape:window-height="976"
     inkscape:window-x="0"
     inkscape:window-y="25"
     inkscape:window-maximized="0"
     inkscape:current-layer="g1">
    <sodipodi:guide
       position="1942.4189,4574.201"
       orientation="1,0"
       id="guide5"
       inkscape:locked="false" />
    <sodipodi:guide
       position="3884.8486,5156.2908"
       orientation="1,0"
       id="guide11"
       inkscape:locked="false" />
    <sodipodi:guide
       position="-1942.4206,5160.1814"
       orientation="1,0"
       id="guide12"
       inkscape:locked="false" />
    <sodipodi:guide
       position="0.0010623112,4534.8182"
       orientation="1,0"
       id="guide13"
       inkscape:locked="false" />
    <sodipodi:guide
       position="1051.1426,6947.413"
       orientation="0,-1"
       id="guide60"
       inkscape:locked="false" />
    <sodipodi:guide
       position="1051.2676,4704.499"
       orientation="0,-1"
       id="guide61"
       inkscape:locked="false" />
    <sodipodi:guide
       position="-1052.6659,6199.7724"
       orientation="0,-1"
       id="guide62"
       inkscape:locked="false" />
    <sodipodi:guide
       position="-1052.7518,6698.1982"
       orientation="0,-1"
       id="guide63"
       inkscape:locked="false" />
    <sodipodi:guide
       position="-590.46673,4953.71"
       orientation="0,-1"
       id="guide64"
       inkscape:locked="false" />
    <sodipodi:guide
       position="-398.12683,5202.9209"
       orientation="0,-1"
       id="guide65"
       inkscape:locked="false" />
    <sodipodi:guide
       position="-386.65813,6448.9872"
       orientation="0,-1"
       id="guide66"
       inkscape:locked="false" />
    <sodipodi:guide
       position="2158.2403,6363.6318"
       orientation="1,0"
       id="guide67"
       inkscape:locked="false" />
    <sodipodi:guide
       position="21.814461,5825.9561"
       orientation="0,-1"
       id="guide68"
       inkscape:locked="false" />
  </sodipodi:namedview>
  <g
     inkscape:groupmode="layer"
     inkscape:label="Image"
     id="g1"
     transform="translate(-3569.6489,-3182.6382)">
    <g
       id="g10"
       inkscape:label="Logo"
       transform="matrix(1.960749,0,0,1.960749,-1166.9527,-163.839)"
       style="stroke-width:0.510009">
      <path
         id="path73"
         style="display:none;fill:#f2f2f2;fill-opacity:1;stroke:none;stroke-width:0.714013;stroke-linecap:round;stroke-linejoin:round;stroke-miterlimit:0;paint-order:markers stroke fill"
         inkscape:label="path73"
         d="m 2947.2634,1706.7362 -531.551,306.8913 v 0 0 0 0 l 0.1435,613.6837 531.4107,306.8105 v 0.1648 l 531.5522,-306.8913 v -613.6955 l -150.482,86.881 -317.1746,183.0554 467.6512,-269.998 -0.1328,-0.091 z" />
      <path
         style="fill:#ffffff;fill-opacity:1;stroke:none;stroke-width:0.714013;stroke-linecap:round;stroke-linejoin:round;stroke-miterlimit:0;paint-order:markers stroke fill"
         d="m 2988.8019,1858.7141 110.8498,-63.9987 -152.3872,-87.9813 -531.5542,306.8934 v 613.7858 l 531.5542,306.8924 531.5531,-306.8924 v -127.9994 l -110.8487,63.9976 -420.7044,242.8937 -420.7044,-242.8937 v -485.7854 l 420.7044,-242.8937 z"
         id="path72"
         inkscape:label="path72" />
      <path
         id="path70"
         style="fill:#ffffff;fill-opacity:1;stroke:none;stroke-width:0.714013;stroke-linecap:round;stroke-linejoin:round;stroke-miterlimit:0;paint-order:markers stroke fill"
         d="m 3168.96,1834.7303 -81.6989,47.1692 -29.1499,16.8305 309.8556,178.8951 -199.0099,114.8975 v 0 l -221.6914,127.992 v 104.124 l 221.6913,-127.9941 88.1664,-50.902 v 0 l 110.8445,-63.9955 v 301.6316 l 110.8489,-63.9976 v -405.7532 z" />
      <path
         style="fill:#ffffff;fill-opacity:1;stroke:none;stroke-width:0.714013;stroke-linecap:round;stroke-linejoin:round;stroke-miterlimit:0;paint-order:markers stroke fill"
         d="m 2947.2645,1962.7265 -309.8587,178.8972 v 357.7934 l 309.8587,178.8962 309.8577,-178.8962 v -104.123 l -309.8587,178.8951 -219.684,-126.8341 v -253.6662 l -0.01,-0.01 309.8619,-178.8994 z"
         id="path56"
         sodipodi:nodetypes="cccccccccccc"
         inkscape:label="path56" />
    </g>
    <g
       id="g57"
       inkscape:label="GLOBAL"
       transform="matrix(1.073141,0,0,1.073141,5632.8683,277.77595)"
       style="stroke-width:0.931844">
      <path
         style="font-weight:600;font-size:626.667px;line-height:0;font-family:Teko;-inkscape-font-specification:'Teko, Semi-Bold';letter-spacing:0px;word-spacing:0px;fill:#ffffff;stroke-width:1.30458;stroke-linecap:round;stroke-linejoin:round;stroke-miterlimit:0;paint-order:markers stroke fill"
         d="m 325.88299,3157.7816 v 244.4001 q 0,8.7733 3.76,12.5333 3.76,3.1334 13.16,3.1334 H 357.843 v 61.4133 h -42.61335 q -42.61336,0 -61.41337,-18.1733 -18.17334,-18.8 -18.17334,-50.7601 v -260.0668 q 0,-32.5866 18.17334,-50.76 18.80001,-18.8 61.41337,-18.8 h 45.74669 v 61.4134 h -18.17335 q -9.4,0 -13.16,3.76 -3.76,3.1333 -3.76,11.9067 z m 149.14674,107.16 v 59.5334 H 354.083 v -59.5334 z m -89.61338,-55.1467 v -52.0133 q 0,-8.7734 -3.76,-11.9067 -3.76,-3.76 -13.16001,-3.76 H 350.323 v -61.4134 h 45.74669 q 42.61335,0 60.7867,18.8 18.17334,18.1734 18.17334,50.76 v 59.5334 z m 0,192.3868 v -96.5067 h 89.61338 v 104.6533 q 0,31.9601 -18.17334,50.7601 -18.17335,18.1733 -60.7867,18.1733 H 352.203 v -61.4133 h 16.29334 q 9.40001,0 13.16001,-3.1334 3.76,-3.76 3.76,-12.5333 z"
         id="text35"
         inkscape:label="G"
         aria-label="G" />
      <path
         style="font-weight:600;font-size:626.667px;line-height:0;font-family:Teko;-inkscape-font-specification:'Teko, Semi-Bold';letter-spacing:0px;word-spacing:0px;fill:#ffffff;stroke-width:1.30458;stroke-linecap:round;stroke-linejoin:round;stroke-miterlimit:0;paint-order:markers stroke fill"
         d="m 504.63991,3080.7018 h 89.61338 v 398.5602 h -89.61338 z m 33.21335,398.5602 v -65.8001 h 171.08009 v 65.8001 z"
         id="text37"
         inkscape:label="L"
         aria-label="L" />
      <path
         style="font-weight:600;font-size:626.667px;line-height:0;font-family:Teko;-inkscape-font-specification:'Teko, Semi-Bold';letter-spacing:0px;word-spacing:0px;fill:#ffffff;stroke-width:1.30458;stroke-linecap:round;stroke-linejoin:round;stroke-miterlimit:0;paint-order:markers stroke fill"
         d="m 891.4475,3288.7572 v -126.5868 q 0,-8.7733 -3.76,-11.9067 -3.13333,-3.76 -12.53334,-3.76 h -21.30667 v -65.8 h 48.25335 q 42.61336,0 60.7867,18.8 18.17334,18.1734 18.17334,50.76 v 138.4935 z m 0,109.04 v -124.0801 h 89.61338 v 135.9868 q 0,32.5867 -18.17334,51.3867 -18.17334,18.1733 -60.7867,18.1733 h -49.50669 v -65.8 h 22.56001 q 9.40001,0 12.53334,-3.76 3.76,-3.76 3.76,-11.9067 z m -63.29336,-235.6268 v 126.5868 h -89.61338 v -138.4935 q 0,-32.5866 18.17334,-50.76 18.80001,-18.8 61.41337,-18.8 h 47.62669 v 65.8 h -20.68001 q -9.40001,0 -13.16001,3.76 -3.76,3.1334 -3.76,11.9067 z m 0,109.6667 v 125.9601 q 0,8.1467 3.76,11.9067 3.76,3.76 13.16001,3.76 h 20.05334 v 65.8 h -47.00002 q -42.61336,0 -61.41337,-18.1733 -18.17334,-18.8 -18.17334,-51.3867 v -137.8668 z"
         id="text38"
         inkscape:label="O"
         aria-label="O" />
      <path
         style="font-weight:600;font-size:626.667px;line-height:0;font-family:Teko;-inkscape-font-specification:'Teko, Semi-Bold';letter-spacing:0px;word-spacing:0px;fill:#ffffff;stroke-width:1.30458;stroke-linecap:round;stroke-linejoin:round;stroke-miterlimit:0;paint-order:markers stroke fill"
         d="m 1010.6646,3080.7018 h 166.0667 q 43.2401,0 61.4134,18.8 18.1734,18.1733 18.1734,50.76 v 69.56 q 0,20.68 -6.2667,36.3467 -5.64,15.04 -21.9334,21.9334 16.2934,6.2666 21.9334,20.0533 6.2667,13.16 6.2667,33.84 v 77.7067 q 0,32.5867 -18.1734,51.3867 -18.1733,18.1734 -61.4134,18.1734 h -166.0667 z m 157.2934,321.4801 v -77.08 q 0,-8.7734 -3.76,-11.9067 -3.76,-3.76 -13.16,-3.76 h -51.3867 v 108.4134 h 51.3867 q 9.4,0 13.16,-3.76 3.76,-3.76 3.76,-11.9067 z m 0,-169.8267 v -74.5734 q 0,-8.7733 -3.76,-11.9067 -3.76,-3.76 -13.16,-3.76 h -51.3867 v 105.9067 h 51.3867 q 9.4,0 13.16,-3.76 3.76,-3.76 3.76,-11.9066 z"
         id="text39"
         inkscape:label="B"
         aria-label="B" />
      <path
         style="font-weight:600;font-size:626.667px;line-height:0;font-family:Teko;-inkscape-font-specification:'Teko, Semi-Bold';letter-spacing:0px;word-spacing:0px;fill:#ffffff;stroke-width:1.30458;stroke-linecap:round;stroke-linejoin:round;stroke-miterlimit:0;paint-order:markers stroke fill"
         d="m 1521.5509,3342.0212 v 65.1733 h -173.5867 v -65.1733 z m 62.0401,137.24 h -90.2401 l -59.5333,-305.8135 -58.9067,305.8135 h -88.9868 l 90.8668,-398.5602 h 114.0534 z"
         id="text40"
         inkscape:label="A"
         aria-label="A" />
      <path
         style="font-weight:600;font-size:626.667px;line-height:0;font-family:Teko;-inkscape-font-specification:'Teko, Semi-Bold';letter-spacing:0px;word-spacing:0px;fill:#ffffff;stroke-width:1.30458;stroke-linecap:round;stroke-linejoin:round;stroke-miterlimit:0;paint-order:markers stroke fill"
         d="m 1613.1948,3080.7071 h 89.6134 v 398.5602 h -89.6134 z m 33.2134,398.5602 v -65.8 h 171.08 v 65.8 z"
         id="text41"
         inkscape:label="L"
         aria-label="L" />
    </g>
    <g
       id="g58"
       inkscape:label="TRANSPORT"
       transform="matrix(1.073141,0,0,1.073141,3757.0192,866.24734)"
       style="stroke-width:0.931844">
      <path
         style="font-weight:600;font-size:626.667px;line-height:0;font-family:Teko;-inkscape-font-specification:'Teko, Semi-Bold';letter-spacing:0px;word-spacing:0px;fill:#ffffff;stroke-width:1.30458;stroke-linecap:round;stroke-linejoin:round;stroke-miterlimit:0;paint-order:markers stroke fill"
         d="m 2056.3361,3107.0218 h 89.6134 v 372.2402 h -89.6134 z m 162.9334,-26.32 v 65.8 h -235.6268 v -65.8 z"
         id="text43"
         inkscape:label="T"
         aria-label="T" />
      <path
         style="font-weight:600;font-size:626.667px;line-height:0;font-family:Teko;-inkscape-font-specification:'Teko, Semi-Bold';letter-spacing:0px;word-spacing:0px;fill:#ffffff;stroke-width:1.30458;stroke-linecap:round;stroke-linejoin:round;stroke-miterlimit:0;paint-order:markers stroke fill"
         d="m 2403.0384,3251.7826 v -89.6134 q 0,-8.7733 -3.76,-11.9067 -3.1334,-3.76 -12.5334,-3.76 h -112.1734 v -65.8 h 139.1201 q 42.6134,0 60.7867,18.8 18.1733,18.1733 18.1733,50.76 v 110.9201 q 0,31.96 -18.1733,50.76 -18.1733,18.1734 -60.7867,18.1734 h -131.6001 v -63.2934 h 104.6534 q 9.4,0 12.5334,-3.1333 3.76,-3.7601 3.76,-11.9067 z m -154.1601,-171.0801 h 89.6134 v 398.5602 h -89.6134 z m 90.24,214.3201 h 88.9867 l 84.6001,184.2401 h -95.8801 z"
         id="text44"
         inkscape:label="R"
         aria-label="R" />
      <path
         style="font-weight:600;font-size:626.667px;line-height:0;font-family:Teko;-inkscape-font-specification:'Teko, Semi-Bold';letter-spacing:0px;word-spacing:0px;fill:#ffffff;stroke-width:1.30458;stroke-linecap:round;stroke-linejoin:round;stroke-miterlimit:0;paint-order:markers stroke fill"
         d="m 2777.9369,3342.0219 v 65.1734 h -173.5867 v -65.1734 z m 62.0401,137.2401 h -90.2401 l -59.5334,-305.8135 -58.9067,305.8135 h -88.9867 l 90.8667,-398.5602 h 114.0534 z"
         id="text45"
         inkscape:label="A"
         aria-label="A" />
      <path
         style="font-weight:600;font-size:626.667px;line-height:0;font-family:Teko;-inkscape-font-specification:'Teko, Semi-Bold';letter-spacing:0px;word-spacing:0px;fill:#ffffff;stroke-width:1.30458;stroke-linecap:round;stroke-linejoin:round;stroke-miterlimit:0;paint-order:markers stroke fill"
         d="m 3036.901,3080.7044 h 82.0934 v 398.5602 h -80.2134 l -87.1067,-238.1334 v 238.1334 h -82.0934 v -398.5602 h 81.4667 l 85.8534,237.5068 z"
         id="text46"
         inkscape:label="N"
         aria-label="N" />
      <path
         style="font-weight:600;font-size:626.667px;line-height:0;font-family:Teko;-inkscape-font-specification:'Teko, Semi-Bold';letter-spacing:0px;word-spacing:0px;fill:#ffffff;stroke-width:1.30458;stroke-linecap:round;stroke-linejoin:round;stroke-miterlimit:0;paint-order:markers stroke fill"
         d="m 3293.4539,3397.796 v -72.0667 q 0,-8.1467 -3.76,-11.28 -3.76,-3.76 -13.16,-3.76 h -55.1467 q -41.36,0 -57.6533,-18.8 -16.2934,-19.4267 -16.2934,-51.3867 v -90.2401 q 0,-32.5867 18.1734,-50.76 18.1733,-18.8 60.7866,-18.8 h 76.4534 q 42.6134,0 60.7867,18.8 18.1734,18.1733 18.1734,50.76 v 51.3867 h -89.6134 v -39.48 q 0,-8.7733 -3.76,-11.9067 -3.76,-3.76 -13.16,-3.76 h -21.3067 q -9.4,0 -13.16,3.76 -3.76,3.1334 -3.76,11.9067 v 70.1867 q 0,8.1467 3.76,11.9067 3.76,3.1333 13.16,3.1333 h 53.8934 q 41.9866,0 58.28,18.1734 16.92,18.1733 16.92,50.76 v 93.3734 q 0,32.5866 -18.1733,51.3867 -18.1734,18.1733 -60.7867,18.1733 h -75.8267 q -42.6134,0 -61.4134,-18.1733 -18.1734,-18.8001 -18.1734,-51.3867 v -51.3867 h 89.6134 v 39.48 q 0,8.1467 3.76,11.9067 3.76,3.76 13.16,3.76 h 21.3067 q 9.4,0 13.16,-3.76 3.76,-3.76 3.76,-11.9067 z"
         id="text47"
         inkscape:label="S"
         aria-label="S" />
      <path
         style="font-weight:600;font-size:626.667px;line-height:0;font-family:Teko;-inkscape-font-specification:'Teko, Semi-Bold';letter-spacing:0px;word-spacing:0px;fill:#ffffff;stroke-width:1.30458;stroke-linecap:round;stroke-linejoin:round;stroke-miterlimit:0;paint-order:markers stroke fill"
         d="m 3566.8311,3258.6798 v -96.5067 q 0,-8.7733 -3.76,-11.9067 -3.1334,-3.76 -12.5334,-3.76 h -112.1733 v -65.8 h 139.12 q 42.6134,0 60.7867,18.8 18.1734,18.1733 18.1734,50.76 v 120.3201 q 0,32.5867 -18.1734,51.3867 -18.1733,18.1733 -60.7867,18.1733 h -131.6 v -65.8 h 104.6533 q 9.4,0 12.5334,-3.76 3.76,-3.76 3.76,-11.9067 z M 3412.671,3080.7064 h 89.6134 v 398.5602 h -89.6134 z"
         id="text48"
         inkscape:label="P"
         aria-label="P" />
      <path
         style="font-weight:600;font-size:626.667px;line-height:0;font-family:Teko;-inkscape-font-specification:'Teko, Semi-Bold';letter-spacing:0px;word-spacing:0px;fill:#ffffff;stroke-width:1.30458;stroke-linecap:round;stroke-linejoin:round;stroke-miterlimit:0;paint-order:markers stroke fill"
         d="m 3838.956,3288.7545 v -126.5868 q 0,-8.7733 -3.76,-11.9066 -3.1333,-3.76 -12.5333,-3.76 h -21.3067 v -65.8001 h 48.2534 q 42.6133,0 60.7867,18.8 18.1733,18.1734 18.1733,50.7601 v 138.4934 z m 0,109.04 v -124.08 h 89.6134 v 135.9867 q 0,32.5867 -18.1733,51.3867 -18.1734,18.1733 -60.7867,18.1733 h -49.5067 v -65.8 h 22.56 q 9.4,0 12.5333,-3.76 3.76,-3.76 3.76,-11.9067 z m -63.2933,-235.6268 v 126.5868 h -89.6134 v -138.4934 q 0,-32.5867 18.1733,-50.7601 18.8001,-18.8 61.4134,-18.8 h 47.6267 v 65.8001 h -20.68 q -9.4,0 -13.16,3.76 -3.76,3.1333 -3.76,11.9066 z m 0,109.6668 v 125.96 q 0,8.1467 3.76,11.9067 3.76,3.76 13.16,3.76 h 20.0533 v 65.8 h -47 q -42.6133,0 -61.4134,-18.1733 -18.1733,-18.8 -18.1733,-51.3867 v -137.8667 z"
         id="text49"
         inkscape:label="O"
         aria-label="O" />
      <path
         style="font-weight:600;font-size:626.667px;line-height:0;font-family:Teko;-inkscape-font-specification:'Teko, Semi-Bold';letter-spacing:0px;word-spacing:0px;fill:#ffffff;stroke-width:1.30458;stroke-linecap:round;stroke-linejoin:round;stroke-miterlimit:0;paint-order:markers stroke fill"
         d="m 4112.3301,3251.7858 v -89.6134 q 0,-8.7734 -3.76,-11.9067 -3.1333,-3.76 -12.5333,-3.76 h -112.1734 v -65.8 h 139.12 q 42.6134,0 60.7867,18.8 18.1734,18.1733 18.1734,50.76 v 110.9201 q 0,31.96 -18.1734,50.76 -18.1733,18.1733 -60.7867,18.1733 h -131.6 v -63.2933 h 104.6534 q 9.4,0 12.5333,-3.1334 3.76,-3.76 3.76,-11.9066 z M 3958.17,3080.7057 h 89.6134 v 398.5602 H 3958.17 Z m 90.2401,214.3201 h 88.9867 l 84.6,184.2401 h -95.88 z"
         id="text50"
         inkscape:label="R"
         aria-label="R" />
      <path
         style="font-weight:600;font-size:626.667px;line-height:0;font-family:Teko;-inkscape-font-specification:'Teko, Semi-Bold';letter-spacing:0px;word-spacing:0px;fill:#ffffff;stroke-width:1.30458;stroke-linecap:round;stroke-linejoin:round;stroke-miterlimit:0;paint-order:markers stroke fill"
         d="m 4304.2613,3107.0208 h 89.6134 v 372.2402 h -89.6134 z m 162.9334,-26.32 v 65.8 h -235.6268 v -65.8 z"
         id="text51"
         inkscape:label="T"
         aria-label="T" />
    </g>
    <g
       id="g59"
       inkscape:label="UNITED"
       transform="matrix(1.073141,0,0,1.073141,913.51544,1454.7065)"
       style="stroke-width:0.931844">
      <path
         style="font-weight:600;font-size:626.667px;line-height:0;font-family:Teko;-inkscape-font-specification:'Teko, Semi-Bold';letter-spacing:0px;word-spacing:0px;fill:#ffffff;stroke-width:1.30458;stroke-linecap:round;stroke-linejoin:round;stroke-miterlimit:0;paint-order:markers stroke fill"
         d="m 4786.2506,3397.7943 v -317.0935 h 89.6134 v 329.0002 q 0,32.5866 -18.1734,51.3866 -18.1733,18.1734 -60.7867,18.1734 h -49.5067 v -65.8 h 21.9334 q 9.4,0 13.16,-3.76 3.76,-3.7601 3.76,-11.9067 z m -63.2934,-317.0935 v 317.0935 q 0,8.1466 3.76,11.9067 3.76,3.76 12.5334,3.76 h 20.68 v 65.8 h -47.6267 q -42.6134,0 -60.7867,-18.1734 -18.1733,-18.8 -18.1733,-51.3866 v -329.0002 z"
         id="text52"
         inkscape:label="U"
         aria-label="U" />
      <path
         style="font-weight:600;font-size:626.667px;line-height:0;font-family:Teko;-inkscape-font-specification:'Teko, Semi-Bold';letter-spacing:0px;word-spacing:0px;fill:#ffffff;stroke-width:1.30458;stroke-linecap:round;stroke-linejoin:round;stroke-miterlimit:0;paint-order:markers stroke fill"
         d="m 5072.7889,3080.7008 h 82.0934 v 398.5602 h -80.2134 l -87.1067,-238.1335 v 238.1335 h -82.0933 v -398.5602 h 81.4667 l 85.8533,237.5068 z"
         id="text53"
         inkscape:label="N"
         aria-label="N" />
      <path
         style="font-weight:600;font-size:626.667px;line-height:0;font-family:Teko;-inkscape-font-specification:'Teko, Semi-Bold';letter-spacing:0px;word-spacing:0px;fill:#ffffff;stroke-width:1.30458;stroke-linecap:round;stroke-linejoin:round;stroke-miterlimit:0;paint-order:markers stroke fill"
         d="m 5184.488,3080.7025 h 89.6134 v 398.5602 h -89.6134 z"
         id="text54"
         inkscape:label="I"
         aria-label="I" />
      <path
         style="font-weight:600;font-size:626.667px;line-height:0;font-family:Teko;-inkscape-font-specification:'Teko, Semi-Bold';letter-spacing:0px;word-spacing:0px;fill:#ffffff;stroke-width:1.30458;stroke-linecap:round;stroke-linejoin:round;stroke-miterlimit:0;paint-order:markers stroke fill"
         d="m 5376.4043,3107.0274 h 89.6134 v 372.2402 h -89.6134 z m 162.9335,-26.32 v 65.8 H 5303.711 v -65.8 z"
         id="text55"
         inkscape:label="T"
         aria-label="T" />
      <path
         style="font-weight:600;font-size:626.667px;line-height:0;font-family:Teko;-inkscape-font-specification:'Teko, Semi-Bold';letter-spacing:0px;word-spacing:0px;fill:#ffffff;stroke-width:1.30458;stroke-linecap:round;stroke-linejoin:round;stroke-miterlimit:0;paint-order:markers stroke fill"
         d="m 5568.942,3080.7071 h 90.24 v 398.5602 h -90.24 z m 194.8934,162.9334 v 65.8001 H 5610.302 v -65.8001 z m 18.1734,-162.9334 v 65.8001 H 5604.662 v -65.8001 z m 5.0133,332.7602 v 65.8 H 5604.662 v -65.8 z"
         id="text56"
         inkscape:label="E"
         aria-label="E" />
      <path
         style="font-weight:600;font-size:626.667px;line-height:0;font-family:Teko;-inkscape-font-specification:'Teko, Semi-Bold';letter-spacing:0px;word-spacing:0px;fill:#ffffff;stroke-width:1.30458;stroke-linecap:round;stroke-linejoin:round;stroke-miterlimit:0;paint-order:markers stroke fill"
         d="m 5973.2962,3240.5072 v -82.72 q 0,-8.7734 -3.76,-11.9067 -3.76,-3.76 -13.16,-3.76 h -106.5334 v -61.4134 h 133.4801 q 42.6133,0 60.7867,18.8 18.8,18.1734 18.8,50.7601 v 90.24 z m 0,161.6801 v -171.7068 h 89.6134 v 179.2268 q 0,32.5867 -18.8,51.3867 -18.1734,18.1733 -60.7867,18.1733 h -133.4801 v -61.4133 h 106.5334 q 9.4,0 13.16,-3.76 3.76,-3.76 3.76,-11.9067 z m -156.6667,-321.4802 h 90.24 v 398.5602 h -90.24 z"
         id="text57"
         inkscape:label="D"
         aria-label="D" />
    </g>
  </g>
</svg>
