<?xml version="1.0" encoding="UTF-8" standalone="no"?>
<!-- Created with Inkscape (http://www.inkscape.org/) -->

<svg
   version="1.1"
   id="svg1"
   width="5827.2666"
   height="2774.3276"
   viewBox="0 0 5827.2666 2774.3275"
   sodipodi:docname="Global-Transport-United-Logo_TEXT-BOTTOM_BLACK-COLOR.svg"
   inkscape:version="1.3.2 (091e20e, 2023-11-25)"
   inkscape:export-filename="GTU_Text_Bottom_White.png"
   inkscape:export-xdpi="96"
   inkscape:export-ydpi="96"
   xmlns:inkscape="http://www.inkscape.org/namespaces/inkscape"
   xmlns:sodipodi="http://sodipodi.sourceforge.net/DTD/sodipodi-0.dtd"
   xmlns="http://www.w3.org/2000/svg"
   xmlns:svg="http://www.w3.org/2000/svg">
  <defs
     id="defs1">
    <inkscape:perspective
       sodipodi:type="inkscape:persp3d"
       inkscape:vp_x="0 : 1524.3275 : 1"
       inkscape:vp_y="0 : 999.99998 : 0"
       inkscape:vp_z="2500 : 1524.3275 : 1"
       inkscape:persp3d-origin="1250 : 1107.6609 : 1"
       id="perspective38" />
  </defs>
  <sodipodi:namedview
     id="namedview1"
     pagecolor="#ffffff"
     bordercolor="#000000"
     borderopacity="0.25"
     inkscape:showpageshadow="2"
     inkscape:pageopacity="0.0"
     inkscape:pagecheckerboard="0"
     inkscape:deskcolor="#d1d1d1"
     showguides="false"
     inkscape:zoom="0.11313708"
     inkscape:cx="2501.3903"
     inkscape:cy="1577.7321"
     inkscape:window-width="1920"
     inkscape:window-height="976"
     inkscape:window-x="0"
     inkscape:window-y="25"
     inkscape:window-maximized="0"
     inkscape:current-layer="g1">
    <sodipodi:guide
       position="3884.8388,3391.9484"
       orientation="1,0"
       id="guide5"
       inkscape:locked="false" />
    <sodipodi:guide
       position="5827.2685,3974.0382"
       orientation="1,0"
       id="guide11"
       inkscape:locked="false" />
    <sodipodi:guide
       position="-0.00085939026,3977.9288"
       orientation="1,0"
       id="guide12"
       inkscape:locked="false" />
    <sodipodi:guide
       position="1942.4209,3352.5656"
       orientation="1,0"
       id="guide13"
       inkscape:locked="false" />
  </sodipodi:namedview>
  <g
     inkscape:groupmode="layer"
     inkscape:label="Image"
     id="g1"
     transform="translate(-1627.229,-2266.2317)">
    <g
       id="g10"
       inkscape:label="Logo"
       transform="matrix(1.8271122,0,0,1.8271122,-844.12548,-852.16295)"
       style="stroke-width:0.547312">
      <path
         id="path73"
         style="display:none;fill:#f2f2f2;fill-opacity:1;stroke:none;stroke-width:0.766237;stroke-linecap:round;stroke-linejoin:round;stroke-miterlimit:0;paint-order:markers stroke fill"
         inkscape:label="path73"
         d="m 2947.2634,1706.7362 -531.551,306.8913 v 0 0 0 0 l 0.1435,613.6837 531.4107,306.8105 v 0.1648 l 531.5522,-306.8913 v -613.6955 l -150.482,86.881 -317.1746,183.0554 467.6512,-269.998 -0.1328,-0.091 z" />
      <path
         style="fill:#1a1a1a;fill-opacity:1;stroke:none;stroke-width:0.766237;stroke-linecap:round;stroke-linejoin:round;stroke-miterlimit:0;paint-order:markers stroke fill"
         d="m 2988.8019,1858.7141 110.8498,-63.9987 -152.3872,-87.9813 -531.5542,306.8934 v 613.7858 l 531.5542,306.8924 531.5531,-306.8924 v -127.9994 l -110.8487,63.9976 -420.7044,242.8937 -420.7044,-242.8937 v -485.7854 l 420.7044,-242.8937 z"
         id="path72"
         inkscape:label="path72" />
      <path
         id="path70"
         style="fill:#1a1a1a;fill-opacity:1;stroke:none;stroke-width:0.766237;stroke-linecap:round;stroke-linejoin:round;stroke-miterlimit:0;paint-order:markers stroke fill"
         d="m 3168.96,1834.7303 -81.6989,47.1692 -29.1499,16.8305 309.8556,178.8951 -199.0099,114.8975 v 0 l -221.6914,127.992 v 104.124 l 221.6913,-127.9941 88.1664,-50.902 v 0 l 110.8445,-63.9955 v 301.6316 l 110.8489,-63.9976 v -405.7532 z" />
      <path
         style="fill:#1a1a1a;fill-opacity:1;stroke:none;stroke-width:0.766237;stroke-linecap:round;stroke-linejoin:round;stroke-miterlimit:0;paint-order:markers stroke fill"
         d="m 2947.2645,1962.7265 -309.8587,178.8972 v 357.7934 l 309.8587,178.8962 309.8577,-178.8962 v -104.123 l -309.8587,178.8951 -219.684,-126.8341 v -253.6662 l -0.01,-0.01 309.8619,-178.8994 z"
         id="path56"
         sodipodi:nodetypes="cccccccccccc"
         inkscape:label="path56" />
    </g>
    <g
       id="g57"
       inkscape:label="GLOBAL"
       transform="translate(1391.5861,1561.2918)">
      <path
         id="text35"
         style="font-size:400px;line-height:0;font-family:'Jersey M54';-inkscape-font-specification:'Jersey M54, Normal';letter-spacing:0px;word-spacing:0px;display:inline;fill:#1a1a1a;fill-opacity:1;stroke-width:1.4;stroke-linecap:round;stroke-linejoin:round;stroke-miterlimit:0;paint-order:markers stroke fill"
         inkscape:label="G"
         d="M 315.22884 3080.7016 C 286.81996 3080.7016 266.35006 3086.9691 253.81673 3099.5024 C 241.70118 3111.6179 235.6429 3128.5377 235.6429 3150.2622 L 235.6429 3410.3286 C 235.6429 3431.6352 241.70118 3448.555 253.81673 3461.0883 C 266.35006 3473.2039 286.81996 3479.2622 315.22884 3479.2622 L 357.84212 3479.2622 L 396.07063 3479.2622 C 424.47951 3479.2622 444.74024 3473.2039 456.85579 3461.0883 C 468.97134 3448.555 475.02962 3431.6352 475.02962 3410.3286 L 475.02962 3305.6743 L 475.02962 3264.9419 L 354.08235 3264.9419 L 354.08235 3324.4751 L 385.41634 3324.4751 L 385.41634 3402.1821 C 385.41634 3408.031 384.16324 3412.2086 381.65657 3414.7153 C 379.14991 3416.8042 374.76308 3417.8481 368.49642 3417.8481 L 357.84212 3417.8481 L 342.80306 3417.8481 C 336.53639 3417.8481 332.14957 3416.8042 329.6429 3414.7153 C 327.13623 3412.2086 325.88313 3408.031 325.88313 3402.1821 L 325.88313 3157.7817 C 325.88313 3151.9328 327.13623 3147.9643 329.6429 3145.8754 C 332.14957 3143.3688 336.53639 3142.1157 342.80306 3142.1157 L 360.97688 3142.1157 L 368.49642 3142.1157 C 374.76308 3142.1157 379.14991 3143.3688 381.65657 3145.8754 C 384.16324 3147.9643 385.41634 3151.9328 385.41634 3157.7817 L 385.41634 3209.7954 L 475.02962 3209.7954 L 475.02962 3150.2622 C 475.02962 3128.5377 468.97134 3111.6179 456.85579 3099.5024 C 444.74024 3086.9691 424.47951 3080.7016 396.07063 3080.7016 L 360.97688 3080.7016 L 315.22884 3080.7016 z M 504.63899 3080.7016 L 504.63899 3479.2622 L 594.25423 3479.2622 L 708.93392 3479.2622 L 708.93392 3413.4614 L 594.25423 3413.4614 L 594.25423 3080.7016 L 504.63899 3080.7016 z M 1010.6644 3080.7016 L 1010.6644 3479.2622 L 1176.7308 3479.2622 C 1205.5574 3479.2622 1226.0293 3473.2039 1238.1449 3461.0883 C 1250.2604 3448.555 1256.3187 3431.4261 1256.3187 3409.7016 L 1256.3187 3331.9946 C 1256.3187 3318.2079 1254.2289 3306.9281 1250.0511 3298.1547 C 1246.2911 3288.9636 1238.9797 3282.2798 1228.1175 3278.102 C 1238.9797 3273.5065 1246.2911 3266.1951 1250.0511 3256.1684 C 1254.2289 3245.724 1256.3187 3233.6094 1256.3187 3219.8227 L 1256.3187 3150.2622 C 1256.3187 3128.5377 1250.2604 3111.6179 1238.1449 3099.5024 C 1226.0293 3086.9691 1205.5574 3080.7016 1176.7308 3080.7016 L 1010.6644 3080.7016 z M 1376.7913 3080.7016 L 1285.9242 3479.2622 L 1374.9105 3479.2622 L 1388.7933 3407.1938 L 1479.3226 3407.1938 L 1493.3519 3479.2622 L 1583.5902 3479.2622 L 1490.8441 3080.7016 L 1376.7913 3080.7016 z M 818.12728 3080.7036 C 789.7184 3080.7036 769.24654 3086.971 756.71321 3099.5044 C 744.59766 3111.6199 738.54134 3128.5397 738.54134 3150.2641 L 738.54134 3288.7563 L 738.54134 3409.7036 C 738.54134 3431.428 744.59766 3448.557 756.71321 3461.0903 C 769.24654 3473.2058 789.7184 3479.2641 818.12728 3479.2641 L 865.12728 3479.2641 L 902.09993 3479.2641 C 930.50881 3479.2641 950.77149 3473.2058 962.88704 3461.0903 C 975.00259 3448.557 981.06087 3431.428 981.06087 3409.7036 L 981.06087 3273.7172 L 981.06087 3150.2641 C 981.06087 3128.5397 975.00259 3111.6199 962.88704 3099.5044 C 950.77149 3086.971 930.50881 3080.7036 902.09993 3080.7036 L 865.75423 3080.7036 L 818.12728 3080.7036 z M 1613.1956 3080.7075 L 1613.1956 3479.268 L 1702.8089 3479.268 L 1817.4886 3479.268 L 1817.4886 3413.4672 L 1702.8089 3413.4672 L 1702.8089 3080.7075 L 1613.1956 3080.7075 z M 1099.6507 3142.1157 L 1151.0374 3142.1157 C 1157.3041 3142.1157 1161.6909 3143.3688 1164.1976 3145.8754 C 1166.7043 3147.9643 1167.9574 3151.9328 1167.9574 3157.7817 L 1167.9574 3232.3559 C 1167.9574 3237.787 1166.7043 3241.7555 1164.1976 3244.2622 C 1161.6909 3246.7688 1157.3041 3248.0219 1151.0374 3248.0219 L 1099.6507 3248.0219 L 1099.6507 3142.1157 z M 845.07454 3146.5044 L 865.75423 3146.5044 L 875.15462 3146.5044 C 881.42128 3146.5044 885.59893 3147.7575 887.68782 3150.2641 C 890.19449 3152.353 891.44759 3156.3215 891.44759 3162.1704 L 891.44759 3273.7172 L 891.44759 3397.7973 C 891.44759 3403.2284 890.19449 3407.1969 887.68782 3409.7036 C 885.59893 3412.2102 881.42128 3413.4633 875.15462 3413.4633 L 865.12728 3413.4633 L 845.07454 3413.4633 C 838.80788 3413.4633 834.42105 3412.2102 831.91438 3409.7036 C 829.40772 3407.1969 828.15462 3403.2284 828.15462 3397.7973 L 828.15462 3271.8364 L 828.15462 3162.1704 C 828.15462 3156.3215 829.40772 3152.353 831.91438 3150.2641 C 834.42105 3147.7575 838.80788 3146.5044 845.07454 3146.5044 z M 1433.8167 3173.4477 L 1466.6351 3342.0219 L 1401.346 3342.0219 L 1433.8167 3173.4477 z M 1099.6507 3309.436 L 1151.0374 3309.436 C 1157.3041 3309.436 1161.6909 3310.6891 1164.1976 3313.1958 C 1166.7043 3315.2846 1167.9574 3319.2531 1167.9574 3325.102 L 1167.9574 3402.1821 C 1167.9574 3407.6132 1166.7043 3411.5817 1164.1976 3414.0883 C 1161.6909 3416.595 1157.3041 3417.8481 1151.0374 3417.8481 L 1099.6507 3417.8481 L 1099.6507 3309.436 z " />
    </g>
    <g
       id="g58"
       inkscape:label="TRANSPORT"
       transform="translate(1391.5861,1561.2918)">
      <path
         id="text43"
         style="font-size:400px;line-height:0;font-family:'Jersey M54';-inkscape-font-specification:'Jersey M54, Normal';letter-spacing:0px;word-spacing:0px;display:inline;fill:#1a1a1a;fill-opacity:1;stroke-width:1.4;stroke-linecap:round;stroke-linejoin:round;stroke-miterlimit:0;paint-order:markers stroke fill"
         inkscape:label="T"
         d="M 1983.6429 3080.7016 L 1983.6429 3146.5024 L 2056.3363 3146.5024 L 2056.3363 3479.2622 L 2145.9495 3479.2622 L 2145.9495 3146.5024 L 2219.2699 3146.5024 L 2219.2699 3080.7016 L 1983.6429 3080.7016 z M 2248.8792 3080.7016 L 2248.8792 3479.2622 L 2338.4925 3479.2622 L 2338.4925 3330.1157 L 2353.9183 3330.1157 L 2416.8245 3479.2622 L 2512.7054 3479.2622 L 2442.9613 3327.3754 C 2456.5207 3324.5021 2467.0482 3319.3725 2474.4788 3311.9419 C 2486.5944 3299.4085 2492.6527 3282.4887 2492.6527 3261.1821 L 2492.6527 3150.2622 C 2492.6527 3128.5377 2486.5944 3111.6179 2474.4788 3099.5024 C 2462.3633 3086.9691 2442.1006 3080.7016 2413.6917 3080.7016 L 2338.4925 3080.7016 L 2248.8792 3080.7016 z M 2633.1761 3080.7016 L 2542.3109 3479.2622 L 2631.2972 3479.2622 L 2645.1781 3407.1958 L 2735.7074 3407.1958 L 2749.7366 3479.2622 L 2839.9769 3479.2622 L 2747.2308 3080.7016 L 2633.1761 3080.7016 z M 3226.4007 3080.7016 C 3197.9918 3080.7016 3177.7292 3086.9691 3165.6136 3099.5024 C 3153.4981 3111.6179 3147.4398 3128.5377 3147.4398 3150.2622 L 3147.4398 3240.5024 C 3147.4398 3261.8091 3152.8725 3278.938 3163.7347 3291.8891 C 3174.5969 3304.4224 3193.8137 3310.6899 3221.387 3310.6899 L 3276.5335 3310.6899 C 3282.8002 3310.6899 3287.187 3311.943 3289.6937 3314.4497 C 3292.2003 3316.5386 3293.4534 3320.2979 3293.4534 3325.729 L 3293.4534 3397.7954 C 3293.4534 3403.2265 3292.2003 3407.1969 3289.6937 3409.7036 C 3287.187 3412.2102 3282.8002 3413.4633 3276.5335 3413.4633 L 3255.2269 3413.4633 C 3248.9602 3413.4633 3244.5734 3412.2102 3242.0667 3409.7036 C 3239.5601 3407.1969 3238.307 3403.2265 3238.307 3397.7954 L 3238.307 3358.3169 L 3148.6937 3358.3169 L 3148.6937 3409.7036 C 3148.6937 3431.428 3154.752 3448.557 3166.8675 3461.0903 C 3179.4008 3473.2058 3199.8707 3479.2622 3228.2796 3479.2622 L 3304.1077 3479.2622 C 3332.5166 3479.2622 3352.7793 3473.2058 3364.8949 3461.0903 C 3377.0104 3448.557 3383.0667 3431.428 3383.0667 3409.7036 L 3383.0667 3316.3286 C 3383.0667 3294.6041 3377.4268 3277.6844 3366.1468 3265.5688 C 3355.2846 3253.4533 3335.8586 3247.395 3307.8675 3247.395 L 3253.973 3247.395 C 3247.7063 3247.395 3243.3214 3246.3511 3240.8148 3244.2622 C 3238.3081 3241.7555 3237.0531 3237.787 3237.0531 3232.3559 L 3237.0531 3162.1684 C 3237.0531 3156.3195 3238.3081 3152.3511 3240.8148 3150.2622 C 3243.3214 3147.7555 3247.7063 3146.5024 3253.973 3146.5024 L 3275.2796 3146.5024 C 3281.5463 3146.5024 3285.9331 3147.7555 3288.4398 3150.2622 C 3290.9464 3152.3511 3292.2015 3156.3195 3292.2015 3162.1684 L 3292.2015 3201.6489 L 3381.8148 3201.6489 L 3381.8148 3150.2622 C 3381.8148 3128.5377 3375.7565 3111.6179 3363.6409 3099.5024 C 3351.5254 3086.9691 3331.2627 3080.7016 3302.8538 3080.7016 L 3226.4007 3080.7016 z M 3765.6351 3080.7016 C 3737.2262 3080.7016 3716.7563 3086.9671 3704.223 3099.5004 C 3692.1074 3111.616 3686.0492 3128.5358 3686.0491 3150.2602 L 3686.0491 3288.7544 L 3686.0491 3409.7016 C 3686.0492 3431.4261 3692.1074 3448.555 3704.223 3461.0883 C 3716.7563 3473.2039 3737.2262 3479.2622 3765.6351 3479.2622 L 3812.6351 3479.2622 L 3849.6097 3479.2622 C 3878.0186 3479.2622 3898.2813 3473.2039 3910.3968 3461.0883 C 3922.5124 3448.555 3928.5687 3431.4261 3928.5687 3409.7016 L 3928.5687 3273.7153 L 3928.5687 3150.2602 C 3928.5687 3128.5358 3922.5124 3111.616 3910.3968 3099.5004 C 3898.2813 3086.9671 3878.0186 3080.7016 3849.6097 3080.7016 L 3813.262 3080.7016 L 3765.6351 3080.7016 z M 4231.5687 3080.7016 L 4231.5687 3146.5004 L 4304.262 3146.5004 L 4304.262 3479.2602 L 4393.8753 3479.2602 L 4393.8753 3146.5004 L 4467.1956 3146.5004 L 4467.1956 3080.7016 L 4231.5687 3080.7016 z M 2869.5804 3080.7036 L 2869.5804 3479.2641 L 2951.6741 3479.2641 L 2951.6741 3241.1313 L 3038.7816 3479.2641 L 3118.9945 3479.2641 L 3118.9945 3080.7036 L 3036.9007 3080.7036 L 3036.9007 3318.2114 L 2951.0472 3080.7036 L 2869.5804 3080.7036 z M 3412.6702 3080.7055 L 3412.6702 3479.2661 L 3502.2835 3479.2661 L 3502.2835 3340.1469 L 3577.4847 3340.1469 C 3605.8936 3340.1469 3626.1563 3334.0887 3638.2718 3321.9731 C 3650.3874 3309.4398 3656.4437 3292.3108 3656.4437 3270.5864 L 3656.4437 3150.2661 C 3656.4437 3128.5416 3650.3874 3111.6219 3638.2718 3099.5063 C 3626.1563 3086.973 3605.8936 3080.7055 3577.4847 3080.7055 L 3502.2835 3080.7055 L 3412.6702 3080.7055 z M 3958.1702 3080.7055 L 3958.1702 3479.2661 L 4047.7835 3479.2661 L 4047.7835 3330.1196 L 4063.2113 3330.1196 L 4126.1175 3479.2661 L 4221.9964 3479.2661 L 4152.2523 3327.3774 C 4165.8117 3324.5041 4176.3392 3319.3764 4183.7699 3311.9458 C 4195.8854 3299.4124 4201.9437 3282.4927 4201.9437 3261.186 L 4201.9437 3150.2661 C 4201.9437 3128.5416 4195.8854 3111.6219 4183.7699 3099.5063 C 4171.6543 3086.973 4151.3916 3080.7055 4122.9827 3080.7055 L 4047.7835 3080.7055 L 3958.1702 3080.7055 z M 3792.5824 3146.5004 L 3813.262 3146.5004 L 3822.6624 3146.5004 C 3828.9291 3146.5004 3833.1067 3147.7535 3835.1956 3150.2602 C 3837.7023 3152.3491 3838.9554 3156.3195 3838.9554 3162.1684 L 3838.9554 3273.7153 L 3838.9554 3397.7954 C 3838.9554 3403.2265 3837.7023 3407.195 3835.1956 3409.7016 C 3833.1067 3412.2083 3828.9291 3413.4614 3822.6624 3413.4614 L 3812.6351 3413.4614 L 3792.5824 3413.4614 C 3786.3157 3413.4614 3781.9289 3412.2083 3779.4222 3409.7016 C 3776.9155 3407.195 3775.6624 3403.2265 3775.6624 3397.7954 L 3775.6624 3271.8344 L 3775.6624 3162.1684 C 3775.6624 3156.3195 3776.9155 3152.3491 3779.4222 3150.2602 C 3781.9289 3147.7535 3786.3157 3146.5004 3792.5824 3146.5004 z M 2338.4925 3146.5024 L 2386.7445 3146.5024 C 2393.0111 3146.5024 2397.1888 3147.7555 2399.2777 3150.2622 C 2401.7843 3152.3511 2403.0374 3156.3195 2403.0374 3162.1684 L 2403.0374 3251.7817 C 2403.0374 3257.2128 2401.7843 3261.1832 2399.2777 3263.6899 C 2397.1888 3265.7788 2393.0111 3266.8227 2386.7445 3266.8227 L 2338.4925 3266.8227 L 2338.4925 3146.5024 z M 3502.2835 3146.5063 L 3550.5374 3146.5063 C 3556.8041 3146.5063 3560.9817 3147.7594 3563.0706 3150.2661 C 3565.5773 3152.355 3566.8304 3156.3234 3566.8304 3162.1723 L 3566.8304 3258.6801 C 3566.8304 3264.1112 3565.5773 3268.0797 3563.0706 3270.5864 C 3560.9817 3273.093 3556.8041 3274.3461 3550.5374 3274.3461 L 3502.2835 3274.3461 L 3502.2835 3146.5063 z M 4047.7835 3146.5063 L 4096.0374 3146.5063 C 4102.3041 3146.5063 4106.4817 3147.7594 4108.5706 3150.2661 C 4111.0773 3152.355 4112.3304 3156.3234 4112.3304 3162.1723 L 4112.3304 3251.7856 C 4112.3304 3257.2167 4111.0773 3261.1852 4108.5706 3263.6919 C 4106.4817 3265.7807 4102.3041 3266.8266 4096.0374 3266.8266 L 4047.7835 3266.8266 L 4047.7835 3146.5063 z M 2690.2034 3173.4477 L 2723.0199 3342.0219 L 2657.7327 3342.0219 L 2690.2034 3173.4477 z " />
    </g>
    <g
       id="g59"
       inkscape:label="UNITED"
       transform="translate(1391.5861,1561.2918)">
      <path
         id="text52"
         style="font-size:400px;line-height:0;font-family:'Jersey M54';-inkscape-font-specification:'Jersey M54, Normal';letter-spacing:0px;word-spacing:0px;display:inline;fill:#1a1a1a;fill-opacity:1;stroke-width:1.4;stroke-linecap:round;stroke-linejoin:round;stroke-miterlimit:0;paint-order:markers stroke fill"
         inkscape:label="U"
         d="M 4633.3441 3080.7016 L 4633.3441 3409.7016 C 4633.3441 3431.4261 4639.4024 3448.555 4651.5179 3461.0883 C 4663.6334 3473.2039 4683.8942 3479.2602 4712.3031 3479.2602 L 4759.93 3479.2602 L 4796.9046 3479.2602 C 4825.3135 3479.2602 4845.5742 3473.2039 4857.6898 3461.0883 C 4869.8053 3448.555 4875.8636 3431.4261 4875.8636 3409.7016 L 4875.8636 3080.7016 L 4786.2503 3080.7016 L 4786.2503 3397.7934 C 4786.2503 3403.2245 4784.9972 3407.195 4782.4906 3409.7016 C 4779.9839 3412.2083 4775.5971 3413.4614 4769.3304 3413.4614 L 4759.93 3413.4614 L 4739.2503 3413.4614 C 4733.4014 3413.4614 4729.2238 3412.2083 4726.7171 3409.7016 C 4724.2105 3407.195 4722.9574 3403.2245 4722.9574 3397.7934 L 4722.9574 3080.7016 L 4633.3441 3080.7016 z M 4905.4691 3080.7016 L 4905.4691 3479.2602 L 4987.5628 3479.2602 L 4987.5628 3241.1274 L 5074.6683 3479.2602 L 5154.8831 3479.2602 L 5154.8831 3080.7016 L 5072.7894 3080.7016 L 5072.7894 3318.2075 L 4986.9359 3080.7016 L 4905.4691 3080.7016 z M 5184.4886 3080.7016 L 5184.4886 3479.2622 L 5274.1019 3479.2622 L 5274.1019 3080.7016 L 5184.4886 3080.7016 z M 5303.7113 3080.7075 L 5303.7113 3146.5083 L 5376.4046 3146.5083 L 5376.4046 3479.268 L 5466.0179 3479.268 L 5466.0179 3146.5083 L 5539.3382 3146.5083 L 5539.3382 3080.7075 L 5303.7113 3080.7075 z M 5568.9417 3080.7075 L 5568.9417 3479.268 L 5659.182 3479.268 L 5787.0218 3479.268 L 5787.0218 3413.4672 L 5659.182 3413.4672 L 5659.182 3309.4399 L 5763.8363 3309.4399 L 5763.8363 3243.6411 L 5659.182 3243.6411 L 5659.182 3146.5063 L 5782.0081 3146.5063 L 5782.0081 3080.7075 L 5659.182 3080.7075 L 5568.9417 3080.7075 z M 5816.6292 3080.7075 L 5816.6292 3479.268 L 5906.8695 3479.268 L 5983.3226 3479.268 C 6011.7315 3479.268 6031.9941 3473.2097 6044.1097 3461.0942 C 6056.643 3448.5609 6062.9105 3431.4319 6062.9105 3409.7075 L 6062.9105 3230.4809 L 6062.9105 3150.268 C 6062.9105 3128.5436 6056.643 3111.6219 6044.1097 3099.5063 C 6031.9941 3086.973 6011.7315 3080.7075 5983.3226 3080.7075 L 5906.8695 3080.7075 L 5816.6292 3080.7075 z M 5906.8695 3142.1196 L 5956.3753 3142.1196 C 5962.642 3142.1196 5967.0288 3143.3746 5969.5355 3145.8813 C 5972.0421 3147.9702 5973.2952 3151.9387 5973.2952 3157.7876 L 5973.2952 3240.5063 L 5973.2952 3402.1879 C 5973.2952 3407.6191 5972.0421 3411.5875 5969.5355 3414.0942 C 5967.0288 3416.6009 5962.642 3417.854 5956.3753 3417.854 L 5906.8695 3417.854 L 5906.8695 3142.1196 z " />
    </g>
  </g>
</svg>
