<?xml version="1.0" encoding="UTF-8" standalone="no"?>
<!-- Created with Inkscape (http://www.inkscape.org/) -->

<svg
   version="1.1"
   id="svg1"
   width="4981.3003"
   height="2406.9597"
   viewBox="0 0 4981.3003 2406.9595"
   sodipodi:docname="Global-Transport-United-Logo_TEXT-SIDE_BLACK-COLOR.svg"
   inkscape:version="1.3.2 (091e20e, 2023-11-25)"
   inkscape:export-filename="GTU_Text_Side_White.png"
   inkscape:export-xdpi="96"
   inkscape:export-ydpi="96"
   xmlns:inkscape="http://www.inkscape.org/namespaces/inkscape"
   xmlns:sodipodi="http://sodipodi.sourceforge.net/DTD/sodipodi-0.dtd"
   xmlns="http://www.w3.org/2000/svg"
   xmlns:svg="http://www.w3.org/2000/svg">
  <defs
     id="defs1">
    <inkscape:perspective
       sodipodi:type="inkscape:persp3d"
       inkscape:vp_x="0 : 1156.9595 : 1"
       inkscape:vp_y="0 : 999.99994 : 0"
       inkscape:vp_z="2500 : 1156.9595 : 1"
       inkscape:persp3d-origin="1250 : 740.29297 : 1"
       id="perspective38" />
  </defs>
  <sodipodi:namedview
     id="namedview1"
     pagecolor="#ffffff"
     bordercolor="#000000"
     borderopacity="0.25"
     inkscape:showpageshadow="2"
     inkscape:pageopacity="0.0"
     inkscape:pagecheckerboard="0"
     inkscape:deskcolor="#d1d1d1"
     showguides="false"
     inkscape:zoom="0.125"
     inkscape:cx="2863.9999"
     inkscape:cy="1108"
     inkscape:window-width="1920"
     inkscape:window-height="976"
     inkscape:window-x="0"
     inkscape:window-y="25"
     inkscape:window-maximized="0"
     inkscape:current-layer="g1">
    <sodipodi:guide
       position="1942.4189,4574.201"
       orientation="1,0"
       id="guide5"
       inkscape:locked="false" />
    <sodipodi:guide
       position="3884.8486,5156.2908"
       orientation="1,0"
       id="guide11"
       inkscape:locked="false" />
    <sodipodi:guide
       position="-1942.4206,5160.1814"
       orientation="1,0"
       id="guide12"
       inkscape:locked="false" />
    <sodipodi:guide
       position="0.0010623112,4534.8182"
       orientation="1,0"
       id="guide13"
       inkscape:locked="false" />
    <sodipodi:guide
       position="1051.1426,6947.413"
       orientation="0,-1"
       id="guide60"
       inkscape:locked="false" />
    <sodipodi:guide
       position="1051.2676,4704.499"
       orientation="0,-1"
       id="guide61"
       inkscape:locked="false" />
    <sodipodi:guide
       position="-1052.6659,6199.7724"
       orientation="0,-1"
       id="guide62"
       inkscape:locked="false" />
    <sodipodi:guide
       position="-1052.7518,6698.1982"
       orientation="0,-1"
       id="guide63"
       inkscape:locked="false" />
    <sodipodi:guide
       position="-590.46673,4953.71"
       orientation="0,-1"
       id="guide64"
       inkscape:locked="false" />
    <sodipodi:guide
       position="-398.12683,5202.9209"
       orientation="0,-1"
       id="guide65"
       inkscape:locked="false" />
    <sodipodi:guide
       position="-386.65813,6448.9872"
       orientation="0,-1"
       id="guide66"
       inkscape:locked="false" />
    <sodipodi:guide
       position="2158.2403,6363.6318"
       orientation="1,0"
       id="guide67"
       inkscape:locked="false" />
    <sodipodi:guide
       position="21.814461,5825.9561"
       orientation="0,-1"
       id="guide68"
       inkscape:locked="false" />
  </sodipodi:namedview>
  <g
     inkscape:groupmode="layer"
     inkscape:label="Image"
     id="g1"
     transform="translate(-3569.6489,-3182.6382)">
    <g
       id="g10"
       inkscape:label="Logo"
       transform="matrix(1.960749,0,0,1.960749,-1166.9527,-163.839)"
       style="stroke-width:0.510009">
      <path
         id="path73"
         style="display:none;fill:#f2f2f2;fill-opacity:1;stroke:none;stroke-width:0.714013;stroke-linecap:round;stroke-linejoin:round;stroke-miterlimit:0;paint-order:markers stroke fill"
         inkscape:label="path73"
         d="m 2947.2634,1706.7362 -531.551,306.8913 v 0 0 0 0 l 0.1435,613.6837 531.4107,306.8105 v 0.1648 l 531.5522,-306.8913 v -613.6955 l -150.482,86.881 -317.1746,183.0554 467.6512,-269.998 -0.1328,-0.091 z" />
      <path
         style="fill:#1a1a1a;fill-opacity:1;stroke:none;stroke-width:0.714013;stroke-linecap:round;stroke-linejoin:round;stroke-miterlimit:0;paint-order:markers stroke fill"
         d="m 2988.8019,1858.7141 110.8498,-63.9987 -152.3872,-87.9813 -531.5542,306.8934 v 613.7858 l 531.5542,306.8924 531.5531,-306.8924 v -127.9994 l -110.8487,63.9976 -420.7044,242.8937 -420.7044,-242.8937 v -485.7854 l 420.7044,-242.8937 z"
         id="path72"
         inkscape:label="path72" />
      <path
         id="path70"
         style="fill:#1a1a1a;fill-opacity:1;stroke:none;stroke-width:0.714013;stroke-linecap:round;stroke-linejoin:round;stroke-miterlimit:0;paint-order:markers stroke fill"
         d="m 3168.96,1834.7303 -81.6989,47.1692 -29.1499,16.8305 309.8556,178.8951 -199.0099,114.8975 v 0 l -221.6914,127.992 v 104.124 l 221.6913,-127.9941 88.1664,-50.902 v 0 l 110.8445,-63.9955 v 301.6316 l 110.8489,-63.9976 v -405.7532 z" />
      <path
         style="fill:#1a1a1a;fill-opacity:1;stroke:none;stroke-width:0.714013;stroke-linecap:round;stroke-linejoin:round;stroke-miterlimit:0;paint-order:markers stroke fill"
         d="m 2947.2645,1962.7265 -309.8587,178.8972 v 357.7934 l 309.8587,178.8962 309.8577,-178.8962 v -104.123 l -309.8587,178.8951 -219.684,-126.8341 v -253.6662 l -0.01,-0.01 309.8619,-178.8994 z"
         id="path56"
         sodipodi:nodetypes="cccccccccccc"
         inkscape:label="path56" />
    </g>
    <g
       id="g57"
       inkscape:label="GLOBAL"
       transform="matrix(1.073141,0,0,1.073141,5632.8683,277.77595)"
       style="stroke-width:0.931844">
      <path
         id="text35"
         style="font-size:400px;line-height:0;font-family:'Jersey M54';-inkscape-font-specification:'Jersey M54, Normal';letter-spacing:0px;word-spacing:0px;display:inline;fill:#1a1a1a;fill-opacity:1;stroke-width:1.30458;stroke-linecap:round;stroke-linejoin:round;stroke-miterlimit:0;paint-order:markers stroke fill"
         inkscape:label="G"
         d="M 315.23021 3080.7008 C 286.82133 3080.7008 266.34919 3086.9681 253.81586 3099.5015 C 241.70031 3111.617 235.64309 3128.537 235.64309 3150.2615 L 235.64309 3410.3279 C 235.64309 3431.6345 241.70031 3448.5545 253.81586 3461.0879 C 266.34919 3473.2034 286.82133 3479.2625 315.23021 3479.2625 L 357.84387 3479.2625 L 396.06949 3479.2625 C 424.47837 3479.2625 444.74038 3473.2034 456.85593 3461.0879 C 468.97148 3448.5545 475.03053 3431.6345 475.03053 3410.3279 L 475.03053 3305.6756 L 475.03053 3264.942 L 354.08373 3264.942 L 354.08373 3324.4744 L 385.41699 3324.4744 L 385.41699 3402.1815 C 385.41699 3408.0304 384.16352 3412.2092 381.65685 3414.7159 C 379.15019 3416.8048 374.76304 3417.8481 368.49638 3417.8481 L 357.84387 3417.8481 L 342.80333 3417.8481 C 336.53666 3417.8481 332.14951 3416.8048 329.64285 3414.7159 C 327.13618 3412.2092 325.88271 3408.0304 325.88271 3402.1815 L 325.88271 3157.7817 C 325.88271 3151.9329 327.13618 3147.9641 329.64285 3145.8753 C 332.14951 3143.3686 336.53666 3142.1151 342.80333 3142.1151 L 360.9761 3142.1151 L 368.49638 3142.1151 C 374.76304 3142.1151 379.15019 3143.3686 381.65685 3145.8753 C 384.16352 3147.9641 385.41699 3151.9329 385.41699 3157.7817 L 385.41699 3209.7958 L 475.03053 3209.7958 L 475.03053 3150.2615 C 475.03053 3128.537 468.97148 3111.617 456.85593 3099.5015 C 444.74038 3086.9681 424.47837 3080.7008 396.06949 3080.7008 L 360.9761 3080.7008 L 315.23021 3080.7008 z M 1376.7916 3080.7008 L 1285.9241 3479.2606 L 1374.9116 3479.2606 L 1388.7928 3407.1938 L 1479.3218 3407.1938 L 1493.3504 3479.2606 L 1583.5918 3479.2606 L 1490.8442 3080.7008 L 1376.7916 3080.7008 z M 504.64024 3080.7026 L 504.64024 3479.2625 L 594.25378 3479.2625 L 708.93248 3479.2625 L 708.93248 3413.4619 L 594.25378 3413.4619 L 594.25378 3080.7026 L 504.64024 3080.7026 z M 1010.6643 3080.7026 L 1010.6643 3479.2625 L 1176.7309 3479.2625 C 1205.5576 3479.2625 1226.0297 3473.2034 1238.1452 3461.0879 C 1250.2608 3448.5545 1256.318 3431.4262 1256.318 3409.7018 L 1256.318 3331.9947 C 1256.318 3318.2081 1254.2295 3306.9286 1250.0517 3298.1553 C 1246.2917 3288.9642 1238.981 3282.2802 1228.1188 3278.1025 C 1238.981 3273.5069 1246.2917 3266.1944 1250.0517 3256.1677 C 1254.2295 3245.7233 1256.318 3233.6088 1256.318 3219.8222 L 1256.318 3150.2615 C 1256.318 3128.537 1250.2608 3111.617 1238.1452 3099.5015 C 1226.0297 3086.9681 1205.5576 3080.7026 1176.7309 3080.7026 L 1010.6643 3080.7026 z M 818.12748 3080.7044 C 789.71861 3080.7044 769.24829 3086.97 756.71496 3099.5033 C 744.59941 3111.6188 738.54036 3128.5389 738.54036 3150.2633 L 738.54036 3288.7568 L 738.54036 3409.7036 C 738.54036 3431.428 744.59941 3448.5564 756.71496 3461.0897 C 769.24829 3473.2052 789.71861 3479.2643 818.12748 3479.2643 L 865.12737 3479.2643 L 902.10082 3479.2643 C 930.5097 3479.2643 950.77172 3473.2052 962.88727 3461.0897 C 975.00282 3448.5564 981.06004 3431.428 981.06004 3409.7036 L 981.06004 3273.7162 L 981.06004 3150.2633 C 981.06004 3128.5389 975.00282 3111.6188 962.88727 3099.5033 C 950.77172 3086.97 930.5097 3080.7044 902.10082 3080.7044 L 865.75345 3080.7044 L 818.12748 3080.7044 z M 1613.1943 3080.7062 L 1613.1943 3479.2679 L 1702.8078 3479.2679 L 1817.4883 3479.2679 L 1817.4883 3413.4674 L 1702.8078 3413.4674 L 1702.8078 3080.7062 L 1613.1943 3080.7062 z M 1099.6518 3142.1151 L 1151.0379 3142.1151 C 1157.3045 3142.1151 1161.6917 3143.3686 1164.1983 3145.8753 C 1166.705 3147.9641 1167.9585 3151.9329 1167.9585 3157.7817 L 1167.9585 3232.3547 C 1167.9585 3237.7859 1166.705 3241.7546 1164.1983 3244.2612 C 1161.6917 3246.7679 1157.3045 3248.0214 1151.0379 3248.0214 L 1099.6518 3248.0214 L 1099.6518 3142.1151 z M 845.07452 3146.5032 L 865.75345 3146.5032 L 875.15379 3146.5032 C 881.42045 3146.5032 885.5993 3147.7566 887.68818 3150.2633 C 890.19485 3152.3522 891.44832 3156.3209 891.44832 3162.1698 L 891.44832 3273.7162 L 891.44832 3397.7971 C 891.44832 3403.2282 890.19485 3407.1969 887.68818 3409.7036 C 885.5993 3412.2103 881.42045 3413.4637 875.15379 3413.4637 L 865.12737 3413.4637 L 845.07452 3413.4637 C 838.80786 3413.4637 834.42071 3412.2103 831.91404 3409.7036 C 829.40738 3407.1969 828.15391 3403.2282 828.15391 3397.7971 L 828.15391 3271.838 L 828.15391 3162.1698 C 828.15391 3156.3209 829.40738 3152.3522 831.91404 3150.2633 C 834.42071 3147.7566 838.80786 3146.5032 845.07452 3146.5032 z M 1433.8179 3173.4484 L 1466.6345 3342.0211 L 1401.3472 3342.0211 L 1433.8179 3173.4484 z M 1099.6518 3309.4357 L 1151.0379 3309.4357 C 1157.3045 3309.4357 1161.6917 3310.6892 1164.1983 3313.1959 C 1166.705 3315.2847 1167.9585 3319.2535 1167.9585 3325.1023 L 1167.9585 3402.1815 C 1167.9585 3407.6126 1166.705 3411.5813 1164.1983 3414.088 C 1161.6917 3416.5947 1157.3045 3417.8481 1151.0379 3417.8481 L 1099.6518 3417.8481 L 1099.6518 3309.4357 z " />
    </g>
    <g
       id="g58"
       inkscape:label="TRANSPORT"
       transform="matrix(1.073141,0,0,1.073141,3757.0192,866.24734)"
       style="stroke-width:0.931844">
      <path
         id="text43"
         style="font-size:400px;line-height:0;font-family:'Jersey M54';-inkscape-font-specification:'Jersey M54, Normal';letter-spacing:0px;word-spacing:0px;display:inline;fill:#1a1a1a;fill-opacity:1;stroke-width:1.30458;stroke-linecap:round;stroke-linejoin:round;stroke-miterlimit:0;paint-order:markers stroke fill"
         inkscape:label="T"
         d="M 3765.6351 3080.7001 C 3737.2262 3080.7001 3716.7559 3086.9675 3704.2226 3099.5008 C 3692.107 3111.6164 3686.0498 3128.5364 3686.0498 3150.2608 L 3686.0498 3288.7543 L 3686.0498 3409.7011 C 3686.0498 3431.4256 3692.107 3448.5539 3704.2226 3461.0872 C 3716.7559 3473.2028 3737.2262 3479.2618 3765.6351 3479.2618 L 3812.6368 3479.2618 L 3849.6103 3479.2618 C 3878.0192 3479.2618 3898.2812 3473.2028 3910.3967 3461.0872 C 3922.5123 3448.5539 3928.5695 3431.4256 3928.5695 3409.7011 L 3928.5695 3273.7138 L 3928.5695 3150.2608 C 3928.5695 3128.5364 3922.5123 3111.6164 3910.3967 3099.5008 C 3898.2812 3086.9675 3878.0192 3080.7001 3849.6103 3080.7001 L 3813.2629 3080.7001 L 3765.6351 3080.7001 z M 4231.568 3080.7001 L 4231.568 3146.5007 L 4304.261 3146.5007 L 4304.261 3479.2618 L 4393.8745 3479.2618 L 4393.8745 3146.5007 L 4467.1953 3146.5007 L 4467.1953 3080.7001 L 4231.568 3080.7001 z M 1983.6436 3080.702 L 1983.6436 3146.5025 L 2056.3366 3146.5025 L 2056.3366 3479.2618 L 2145.9501 3479.2618 L 2145.9501 3146.5025 L 2219.2691 3146.5025 L 2219.2691 3080.702 L 1983.6436 3080.702 z M 2248.8788 3080.702 L 2248.8788 3479.2618 L 2338.4924 3479.2618 L 2338.4924 3330.1158 L 2353.9206 3330.1158 L 2416.8255 3479.2618 L 2512.7053 3479.2618 L 2442.9608 3327.3749 C 2456.5202 3324.5016 2467.0473 3319.3737 2474.4779 3311.943 C 2486.5934 3299.4097 2492.6525 3282.4897 2492.6525 3261.183 L 2492.6525 3150.2627 C 2492.6525 3128.5382 2486.5934 3111.6182 2474.4779 3099.5026 C 2462.3623 3086.9693 2442.1003 3080.702 2413.6915 3080.702 L 2338.4924 3080.702 L 2248.8788 3080.702 z M 2633.1771 3080.702 L 2542.3096 3479.2618 L 2631.297 3479.2618 L 2645.1782 3407.195 L 2735.7073 3407.195 L 2749.7377 3479.2618 L 2839.9773 3479.2618 L 2747.2297 3080.702 L 2633.1771 3080.702 z M 3226.4014 3080.702 C 3197.9925 3080.702 3177.7287 3086.9693 3165.6131 3099.5026 C 3153.4976 3111.6182 3147.4403 3128.5382 3147.4403 3150.2627 L 3147.4403 3240.5023 C 3147.4403 3261.8089 3152.8708 3278.9373 3163.7331 3291.8884 C 3174.5953 3304.4217 3193.8139 3310.6891 3221.3873 3310.6891 L 3276.5335 3310.6891 C 3282.8002 3310.6891 3287.1873 3311.9425 3289.694 3314.4492 C 3292.2006 3316.5381 3293.4541 3320.2985 3293.4541 3325.7296 L 3293.4541 3397.7965 C 3293.4541 3403.2276 3292.2006 3407.1963 3289.694 3409.7029 C 3287.1873 3412.2096 3282.8002 3413.4631 3276.5335 3413.4631 L 3255.2267 3413.4631 C 3248.96 3413.4631 3244.5747 3412.2096 3242.068 3409.7029 C 3239.5613 3407.1963 3238.3079 3403.2276 3238.3079 3397.7965 L 3238.3079 3358.3168 L 3148.6943 3358.3168 L 3148.6943 3409.7029 C 3148.6943 3431.4274 3154.7516 3448.5557 3166.8671 3461.089 C 3179.4004 3473.2046 3199.8726 3479.2618 3228.2815 3479.2618 L 3304.1066 3479.2618 C 3332.5155 3479.2618 3352.7775 3473.2046 3364.8931 3461.089 C 3377.0086 3448.5557 3383.0677 3431.4274 3383.0677 3409.7029 L 3383.0677 3316.3293 C 3383.0677 3294.6048 3377.427 3277.6848 3366.147 3265.5693 C 3355.2848 3253.4537 3335.8578 3247.3965 3307.8668 3247.3965 L 3253.9745 3247.3965 C 3247.7078 3247.3965 3243.3207 3246.3513 3240.814 3244.2624 C 3238.3074 3241.7558 3237.0539 3237.787 3237.0539 3232.3559 L 3237.0539 3162.1691 C 3237.0539 3156.3203 3238.3074 3152.3515 3240.814 3150.2627 C 3243.3207 3147.756 3247.7078 3146.5025 3253.9745 3146.5025 L 3275.2813 3146.5025 C 3281.548 3146.5025 3285.9333 3147.756 3288.44 3150.2627 C 3290.9467 3152.3515 3292.2001 3156.3203 3292.2001 3162.1691 L 3292.2001 3201.6488 L 3381.8137 3201.6488 L 3381.8137 3150.2627 C 3381.8137 3128.5382 3375.7564 3111.6182 3363.6409 3099.5026 C 3351.5253 3086.9693 3331.2633 3080.702 3302.8545 3080.702 L 3226.4014 3080.702 z M 2869.5816 3080.7038 L 2869.5816 3479.2655 L 2951.6748 3479.2655 L 2951.6748 3241.132 L 3038.7804 3479.2655 L 3118.9936 3479.2655 L 3118.9936 3080.7038 L 3036.9003 3080.7038 L 3036.9003 3318.2112 L 2951.0469 3080.7038 L 2869.5816 3080.7038 z M 3412.6719 3080.7056 L 3412.6719 3479.2673 L 3502.2836 3479.2673 L 3502.2836 3340.1459 L 3577.4845 3340.1459 C 3605.8934 3340.1459 3626.1554 3334.0887 3638.271 3321.9731 C 3650.3865 3309.4398 3656.4437 3292.3114 3656.4437 3270.587 L 3656.4437 3150.2663 C 3656.4437 3128.5419 3650.3865 3111.6218 3638.271 3099.5063 C 3626.1554 3086.973 3605.8934 3080.7056 3577.4845 3080.7056 L 3502.2836 3080.7056 L 3412.6719 3080.7056 z M 3958.1701 3080.7056 L 3958.1701 3479.2655 L 4047.7836 3479.2655 L 4047.7836 3330.1195 L 4063.2119 3330.1195 L 4126.1168 3479.2655 L 4221.9966 3479.2655 L 4152.2521 3327.3785 C 4165.8115 3324.5052 4176.3404 3319.3773 4183.771 3311.9467 C 4195.8865 3299.4134 4201.9438 3282.4915 4201.9438 3261.1849 L 4201.9438 3150.2663 C 4201.9438 3128.5419 4195.8865 3111.6218 4183.771 3099.5063 C 4171.6554 3086.973 4151.3916 3080.7056 4122.9827 3080.7056 L 4047.7836 3080.7056 L 3958.1701 3080.7056 z M 3792.5822 3146.5007 L 3813.2629 3146.5007 L 3822.6632 3146.5007 C 3828.9299 3146.5007 3833.1069 3147.7542 3835.1958 3150.2608 C 3837.7025 3152.3497 3838.956 3156.3184 3838.956 3162.1673 L 3838.956 3273.7138 L 3838.956 3397.7946 C 3838.956 3403.2257 3837.7025 3407.1945 3835.1958 3409.7011 C 3833.1069 3412.2078 3828.9299 3413.4613 3822.6632 3413.4613 L 3812.6368 3413.4613 L 3792.5822 3413.4613 C 3786.3155 3413.4613 3781.9302 3412.2078 3779.4235 3409.7011 C 3776.9168 3407.1945 3775.6634 3403.2257 3775.6634 3397.7946 L 3775.6634 3271.8337 L 3775.6634 3162.1673 C 3775.6634 3156.3184 3776.9168 3152.3497 3779.4235 3150.2608 C 3781.9302 3147.7542 3786.3155 3146.5007 3792.5822 3146.5007 z M 2338.4924 3146.5025 L 2386.7444 3146.5025 C 2393.0111 3146.5025 2397.1899 3147.756 2399.2788 3150.2627 C 2401.7855 3152.3515 2403.039 3156.3203 2403.039 3162.1691 L 2403.039 3251.7827 C 2403.039 3257.2138 2401.7855 3261.1825 2399.2788 3263.6892 C 2397.1899 3265.7781 2393.0111 3266.8232 2386.7444 3266.8232 L 2338.4924 3266.8232 L 2338.4924 3146.5025 z M 3502.2836 3146.5062 L 3550.5375 3146.5062 C 3556.8042 3146.5062 3560.983 3147.7596 3563.0719 3150.2663 C 3565.5786 3152.3552 3566.8302 3156.3239 3566.8302 3162.1728 L 3566.8302 3258.6805 C 3566.8302 3264.1116 3565.5786 3268.0803 3563.0719 3270.587 C 3560.983 3273.0937 3556.8042 3274.3471 3550.5375 3274.3471 L 3502.2836 3274.3471 L 3502.2836 3146.5062 z M 4047.7836 3146.5062 L 4096.0375 3146.5062 C 4102.3042 3146.5062 4106.4812 3147.7596 4108.5701 3150.2663 C 4111.0768 3152.3552 4112.3302 3156.3239 4112.3302 3162.1728 L 4112.3302 3251.7863 C 4112.3302 3257.2174 4111.0768 3261.1862 4108.5701 3263.6928 C 4106.4812 3265.7817 4102.3042 3266.8251 4096.0375 3266.8251 L 4047.7836 3266.8251 L 4047.7836 3146.5062 z M 2690.2034 3173.4477 L 2723.02 3342.0223 L 2657.7327 3342.0223 L 2690.2034 3173.4477 z " />
    </g>
    <g
       id="g59"
       inkscape:label="UNITED"
       transform="matrix(1.073141,0,0,1.073141,913.51544,1454.7065)"
       style="stroke-width:0.931844">
      <path
         id="text52"
         style="font-size:400px;line-height:0;font-family:'Jersey M54';-inkscape-font-specification:'Jersey M54, Normal';letter-spacing:0px;word-spacing:0px;display:inline;fill:#1a1a1a;fill-opacity:1;stroke-width:1.30458;stroke-linecap:round;stroke-linejoin:round;stroke-miterlimit:0;paint-order:markers stroke fill"
         inkscape:label="U"
         d="M 4633.3437 3080.7 L 4633.3437 3409.701 C 4633.3437 3431.4254 4639.401 3448.5537 4651.5165 3461.0871 C 4663.6321 3473.2026 4683.8959 3479.2617 4712.3048 3479.2617 L 4759.9307 3479.2617 L 4796.9042 3479.2617 C 4825.3131 3479.2617 4845.5751 3473.2026 4857.6906 3461.0871 C 4869.8062 3448.5537 4875.8634 3431.4254 4875.8634 3409.701 L 4875.8634 3080.7 L 4786.2499 3080.7 L 4786.2499 3397.7945 C 4786.2499 3403.2256 4784.9964 3407.1943 4782.4897 3409.701 C 4779.9831 3412.2076 4775.5977 3413.4611 4769.3311 3413.4611 L 4759.9307 3413.4611 L 4739.25 3413.4611 C 4733.4011 3413.4611 4729.2241 3412.2076 4726.7174 3409.701 C 4724.2107 3407.1943 4722.9573 3403.2256 4722.9573 3397.7945 L 4722.9573 3080.7 L 4633.3437 3080.7 z M 4905.4695 3080.7 L 4905.4695 3479.2617 L 4987.5627 3479.2617 L 4987.5627 3241.1282 L 5074.6683 3479.2617 L 5154.8815 3479.2617 L 5154.8815 3080.7 L 5072.7882 3080.7 L 5072.7882 3318.2074 L 4986.9348 3080.7 L 4905.4695 3080.7 z M 5184.4876 3080.7018 L 5184.4876 3479.2635 L 5274.1011 3479.2635 L 5274.1011 3080.7018 L 5184.4876 3080.7018 z M 5303.7108 3080.7073 L 5303.7108 3146.5078 L 5376.4038 3146.5078 L 5376.4038 3479.2671 L 5466.0173 3479.2671 L 5466.0173 3146.5078 L 5539.3382 3146.5078 L 5539.3382 3080.7073 L 5303.7108 3080.7073 z M 5568.9424 3080.7073 L 5568.9424 3479.2671 L 5659.182 3479.2671 L 5787.023 3479.2671 L 5787.023 3413.4666 L 5659.182 3413.4666 L 5659.182 3309.4404 L 5763.8361 3309.4404 L 5763.8361 3243.6398 L 5659.182 3243.6398 L 5659.182 3146.5078 L 5782.0089 3146.5078 L 5782.0089 3080.7073 L 5659.182 3080.7073 L 5568.9424 3080.7073 z M 5816.6291 3080.7073 L 5816.6291 3479.2671 L 5906.8687 3479.2671 L 5983.3236 3479.2671 C 6011.7325 3479.2671 6031.9945 3473.2099 6044.11 3461.0943 C 6056.6434 3448.561 6062.9089 3431.4309 6062.9089 3409.7064 L 6062.9089 3230.4812 L 6062.9089 3150.268 C 6062.9089 3128.5435 6056.6434 3111.6235 6044.11 3099.5079 C 6031.9945 3086.9746 6011.7325 3080.7073 5983.3236 3080.7073 L 5906.8687 3080.7073 L 5816.6291 3080.7073 z M 5906.8687 3142.1198 L 5956.3766 3142.1198 C 5962.6432 3142.1198 5967.0304 3143.3732 5969.537 3145.8799 C 5972.0437 3147.9688 5973.2954 3151.9375 5973.2954 3157.7864 L 5973.2954 3240.5076 L 5973.2954 3402.188 C 5973.2954 3407.6191 5972.0437 3411.5878 5969.537 3414.0945 C 5967.0304 3416.6011 5962.6432 3417.8546 5956.3766 3417.8546 L 5906.8687 3417.8546 L 5906.8687 3142.1198 z " />
    </g>
  </g>
</svg>
